<?xml version="1.0" standalone="no"?>
<!DOCTYPE svg PUBLIC "-//W3C//DTD SVG 20010904//EN"
 "http://www.w3.org/TR/2001/REC-SVG-20010904/DTD/svg10.dtd">
<svg version="1.0" xmlns="http://www.w3.org/2000/svg"
 width="118.000000pt" height="118.000000pt" viewBox="0 0 118.000000 118.000000"
 preserveAspectRatio="xMidYMid meet">
<metadata>
Created by potrace 1.11, written by Peter Selinger 2001-2013
</metadata>
<g transform="translate(0.000000,118.000000) scale(0.100000,-0.100000)"
fill="#000000" stroke="none">
<path d="M484 1130 c-139 -21 -275 -101 -356 -210 -40 -53 -84 -149 -98 -211
-18 -79 -9 -229 18 -304 59 -163 196 -291 366 -343 77 -23 216 -21 301 6 226
69 385 287 385 527 0 68 -33 193 -67 258 -40 76 -155 186 -233 223 -101 49
-220 69 -316 54z m108 -71 c60 -31 88 -65 88 -109 0 -20 -3 -40 -7 -43 -3 -4
-22 20 -40 52 -31 56 -51 77 -99 108 -34 22 12 16 58 -8z m178 -86 c65 -69
105 -176 81 -213 -8 -11 -15 -4 -31 35 -55 127 -80 173 -114 207 -20 20 -36
40 -36 43 0 13 64 -32 100 -72z m98 -37 c46 -42 109 -142 134 -212 12 -35 21
-86 22 -124 1 -63 -19 -160 -34 -160 -4 0 -10 53 -13 118 -9 176 -40 263 -134
379 -46 57 -38 57 25 -1z m-330 -78 c19 -19 15 -146 -7 -193 -38 -82 -124
-137 -233 -150 l-58 -6 0 -40 c0 -21 -4 -39 -10 -39 -5 0 -10 12 -10 28 0 41
-11 51 -70 60 l-55 8 53 10 53 9 3 70 c4 113 61 196 159 234 58 22 157 27 175
9z m297 -319 c11 -17 8 -78 -5 -109 -15 -35 -60 -66 -112 -75 -22 -4 -38 -13
-38 -21 0 -21 -17 -17 -23 6 -3 13 -14 20 -29 21 l-23 0 23 11 c17 8 22 20 22
47 0 48 18 81 59 108 36 24 114 32 126 12z m-269 -45 c10 -40 -2 -114 -23
-143 -31 -41 -81 -70 -134 -77 -43 -6 -49 -9 -49 -30 0 -13 -4 -24 -10 -24 -5
0 -10 11 -10 25 0 21 -5 25 -29 25 -40 0 -48 17 -12 25 27 6 29 10 33 64 7
100 75 160 180 161 43 0 48 -3 54 -26z"/>
<path d="M387 785 c-87 -32 -127 -85 -142 -189 l-8 -48 34 7 c130 27 209 105
209 205 0 37 -2 40 -27 39 -16 0 -45 -7 -66 -14z"/>
<path d="M727 479 c-19 -11 -52 -77 -44 -86 3 -2 16 -1 30 2 29 8 62 40 72 73
5 18 3 22 -17 22 -13 0 -31 -5 -41 -11z"/>
<path d="M442 443 c-19 -9 -40 -26 -48 -38 -17 -26 -36 -87 -29 -93 3 -3 22 0
43 6 49 15 91 60 99 105 5 32 3 37 -13 37 -11 0 -34 -8 -52 -17z"/>
</g>
</svg>
